<mxfile host="app.diagrams.net" agent="Mozilla/5.0 (Windows NT 6.1; Win64; x64) AppleWebKit/537.36 (KHTML, like Gecko) Chrome/109.0.0.0 Safari/537.36" version="24.7.17">
  <diagram name="Page-1" id="TuGj5kvht_a5tFD4zAao">
    <mxGraphModel dx="824" dy="601" grid="1" gridSize="10" guides="1" tooltips="1" connect="1" arrows="1" fold="1" page="1" pageScale="1" pageWidth="850" pageHeight="1100" math="1" shadow="0">
      <root>
        <mxCell id="0" />
        <mxCell id="1" parent="0" />
        <mxCell id="AMzglcMHUrroP556hHJn-3" value="" style="pointerEvents=1;verticalLabelPosition=bottom;shadow=0;dashed=0;align=center;html=1;verticalAlign=top;shape=mxgraph.electrical.signal_sources.current_source;direction=south;strokeWidth=2;" parent="1" vertex="1">
          <mxGeometry x="280" y="120" width="60" height="40" as="geometry" />
        </mxCell>
        <mxCell id="AMzglcMHUrroP556hHJn-4" value="" style="endArrow=none;html=1;rounded=0;strokeWidth=2;" parent="1" edge="1">
          <mxGeometry width="50" height="50" relative="1" as="geometry">
            <mxPoint x="340" y="140" as="sourcePoint" />
            <mxPoint x="380" y="140" as="targetPoint" />
          </mxGeometry>
        </mxCell>
        <mxCell id="AMzglcMHUrroP556hHJn-5" value="" style="endArrow=none;html=1;rounded=0;strokeWidth=2;" parent="1" edge="1">
          <mxGeometry width="50" height="50" relative="1" as="geometry">
            <mxPoint x="240" y="140" as="sourcePoint" />
            <mxPoint x="280" y="139.71" as="targetPoint" />
          </mxGeometry>
        </mxCell>
        <mxCell id="AMzglcMHUrroP556hHJn-6" value="" style="endArrow=none;html=1;rounded=0;exitDx=0;exitDy=0;exitPerimeter=0;strokeWidth=2;" parent="1" edge="1">
          <mxGeometry width="50" height="50" relative="1" as="geometry">
            <mxPoint x="240" y="201" as="sourcePoint" />
            <mxPoint x="240" y="140" as="targetPoint" />
          </mxGeometry>
        </mxCell>
        <mxCell id="AMzglcMHUrroP556hHJn-7" value="" style="endArrow=none;html=1;rounded=0;exitDx=0;exitDy=0;exitPerimeter=0;strokeWidth=2;" parent="1" source="m31NP56nFRz9vNVK3klE-5" edge="1">
          <mxGeometry width="50" height="50" relative="1" as="geometry">
            <mxPoint x="380" y="240" as="sourcePoint" />
            <mxPoint x="380" y="140" as="targetPoint" />
          </mxGeometry>
        </mxCell>
        <mxCell id="AMzglcMHUrroP556hHJn-8" value="" style="verticalLabelPosition=bottom;shadow=0;dashed=0;align=center;html=1;verticalAlign=top;shape=mxgraph.electrical.transistors.nmos;pointerEvents=1;strokeWidth=2;" parent="1" vertex="1">
          <mxGeometry x="180" y="280" width="60" height="100" as="geometry" />
        </mxCell>
        <mxCell id="AMzglcMHUrroP556hHJn-9" value="" style="verticalLabelPosition=bottom;shadow=0;dashed=0;align=center;html=1;verticalAlign=top;shape=mxgraph.electrical.transistors.nmos;pointerEvents=1;direction=east;flipH=1;strokeWidth=2;" parent="1" vertex="1">
          <mxGeometry x="380" y="280" width="60" height="100" as="geometry" />
        </mxCell>
        <mxCell id="AMzglcMHUrroP556hHJn-10" value="" style="endArrow=none;html=1;rounded=0;strokeWidth=2;" parent="1" edge="1">
          <mxGeometry width="50" height="50" relative="1" as="geometry">
            <mxPoint x="440" y="360" as="sourcePoint" />
            <mxPoint x="440" y="330" as="targetPoint" />
          </mxGeometry>
        </mxCell>
        <mxCell id="AMzglcMHUrroP556hHJn-11" value="" style="pointerEvents=1;verticalLabelPosition=bottom;shadow=0;dashed=0;align=center;html=1;verticalAlign=top;shape=mxgraph.electrical.signal_sources.source;aspect=fixed;points=[[0.5,0,0],[1,0.5,0],[0.5,1,0],[0,0.5,0]];elSignalType=dc3;strokeWidth=2;" parent="1" vertex="1">
          <mxGeometry x="425" y="360" width="30" height="30" as="geometry" />
        </mxCell>
        <mxCell id="AMzglcMHUrroP556hHJn-12" value="" style="endArrow=none;html=1;rounded=0;strokeWidth=2;" parent="1" edge="1">
          <mxGeometry width="50" height="50" relative="1" as="geometry">
            <mxPoint x="180" y="440" as="sourcePoint" />
            <mxPoint x="180" y="330" as="targetPoint" />
          </mxGeometry>
        </mxCell>
        <mxCell id="AMzglcMHUrroP556hHJn-13" value="" style="endArrow=none;html=1;rounded=0;strokeWidth=2;" parent="1" edge="1">
          <mxGeometry width="50" height="50" relative="1" as="geometry">
            <mxPoint x="440" y="440" as="sourcePoint" />
            <mxPoint x="440" y="390" as="targetPoint" />
          </mxGeometry>
        </mxCell>
        <mxCell id="AMzglcMHUrroP556hHJn-14" value="" style="pointerEvents=1;verticalLabelPosition=bottom;shadow=0;dashed=0;align=center;html=1;verticalAlign=top;shape=mxgraph.electrical.signal_sources.current_source;direction=south;strokeWidth=2;" parent="1" vertex="1">
          <mxGeometry x="530" y="360" width="60" height="40" as="geometry" />
        </mxCell>
        <mxCell id="AMzglcMHUrroP556hHJn-15" value="" style="pointerEvents=1;verticalLabelPosition=bottom;shadow=0;dashed=0;align=center;html=1;verticalAlign=top;shape=mxgraph.electrical.signal_sources.current_source;direction=south;strokeWidth=2;" parent="1" vertex="1">
          <mxGeometry x="640" y="360" width="60" height="40" as="geometry" />
        </mxCell>
        <mxCell id="AMzglcMHUrroP556hHJn-16" value="" style="endArrow=none;html=1;rounded=0;strokeWidth=2;" parent="1" source="AMzglcMHUrroP556hHJn-30" edge="1">
          <mxGeometry width="50" height="50" relative="1" as="geometry">
            <mxPoint x="240" y="270" as="sourcePoint" />
            <mxPoint x="520" y="270" as="targetPoint" />
          </mxGeometry>
        </mxCell>
        <mxCell id="AMzglcMHUrroP556hHJn-17" value="" style="endArrow=none;html=1;rounded=0;strokeWidth=2;" parent="1" edge="1">
          <mxGeometry width="50" height="50" relative="1" as="geometry">
            <mxPoint x="520" y="380" as="sourcePoint" />
            <mxPoint x="520" y="270" as="targetPoint" />
          </mxGeometry>
        </mxCell>
        <mxCell id="AMzglcMHUrroP556hHJn-18" value="" style="endArrow=none;html=1;rounded=0;strokeWidth=2;" parent="1" edge="1">
          <mxGeometry width="50" height="50" relative="1" as="geometry">
            <mxPoint x="710" y="380" as="sourcePoint" />
            <mxPoint x="710" y="240" as="targetPoint" />
          </mxGeometry>
        </mxCell>
        <mxCell id="AMzglcMHUrroP556hHJn-19" value="" style="endArrow=none;html=1;rounded=0;strokeWidth=2;" parent="1" edge="1">
          <mxGeometry width="50" height="50" relative="1" as="geometry">
            <mxPoint x="380" y="240" as="sourcePoint" />
            <mxPoint x="710" y="240" as="targetPoint" />
          </mxGeometry>
        </mxCell>
        <mxCell id="AMzglcMHUrroP556hHJn-20" value="" style="endArrow=none;html=1;rounded=0;strokeWidth=2;" parent="1" edge="1">
          <mxGeometry width="50" height="50" relative="1" as="geometry">
            <mxPoint x="590" y="380" as="sourcePoint" />
            <mxPoint x="600" y="380" as="targetPoint" />
          </mxGeometry>
        </mxCell>
        <mxCell id="AMzglcMHUrroP556hHJn-21" value="" style="endArrow=none;html=1;rounded=0;strokeWidth=2;" parent="1" edge="1">
          <mxGeometry width="50" height="50" relative="1" as="geometry">
            <mxPoint x="630" y="380" as="sourcePoint" />
            <mxPoint x="640" y="380" as="targetPoint" />
          </mxGeometry>
        </mxCell>
        <mxCell id="AMzglcMHUrroP556hHJn-22" value="" style="endArrow=none;html=1;rounded=0;strokeWidth=2;" parent="1" edge="1">
          <mxGeometry width="50" height="50" relative="1" as="geometry">
            <mxPoint x="520" y="379.87" as="sourcePoint" />
            <mxPoint x="530" y="379.87" as="targetPoint" />
          </mxGeometry>
        </mxCell>
        <mxCell id="AMzglcMHUrroP556hHJn-23" value="" style="endArrow=none;html=1;rounded=0;strokeWidth=2;" parent="1" edge="1">
          <mxGeometry width="50" height="50" relative="1" as="geometry">
            <mxPoint x="600" y="380" as="sourcePoint" />
            <mxPoint x="600" y="320" as="targetPoint" />
          </mxGeometry>
        </mxCell>
        <mxCell id="AMzglcMHUrroP556hHJn-24" value="" style="endArrow=none;html=1;rounded=0;strokeWidth=2;" parent="1" edge="1">
          <mxGeometry width="50" height="50" relative="1" as="geometry">
            <mxPoint x="630" y="380" as="sourcePoint" />
            <mxPoint x="630" y="320" as="targetPoint" />
          </mxGeometry>
        </mxCell>
        <mxCell id="AMzglcMHUrroP556hHJn-25" value="" style="pointerEvents=1;verticalLabelPosition=bottom;shadow=0;dashed=0;align=center;html=1;verticalAlign=top;shape=mxgraph.electrical.signal_sources.current_source;direction=south;strokeWidth=2;" parent="1" vertex="1">
          <mxGeometry x="540" y="250" width="60" height="40" as="geometry" />
        </mxCell>
        <mxCell id="AMzglcMHUrroP556hHJn-26" value="" style="endArrow=none;html=1;rounded=0;strokeWidth=2;" parent="1" edge="1">
          <mxGeometry width="50" height="50" relative="1" as="geometry">
            <mxPoint x="600" y="320" as="sourcePoint" />
            <mxPoint x="630" y="320" as="targetPoint" />
          </mxGeometry>
        </mxCell>
        <mxCell id="AMzglcMHUrroP556hHJn-27" value="" style="endArrow=none;html=1;rounded=0;strokeWidth=2;" parent="1" edge="1">
          <mxGeometry width="50" height="50" relative="1" as="geometry">
            <mxPoint x="620" y="320" as="sourcePoint" />
            <mxPoint x="620" y="270" as="targetPoint" />
          </mxGeometry>
        </mxCell>
        <mxCell id="AMzglcMHUrroP556hHJn-28" value="" style="endArrow=none;html=1;rounded=0;strokeWidth=2;" parent="1" edge="1">
          <mxGeometry width="50" height="50" relative="1" as="geometry">
            <mxPoint x="600" y="269.92" as="sourcePoint" />
            <mxPoint x="620" y="270" as="targetPoint" />
          </mxGeometry>
        </mxCell>
        <mxCell id="AMzglcMHUrroP556hHJn-29" value="" style="endArrow=none;html=1;rounded=0;strokeWidth=2;" parent="1" edge="1">
          <mxGeometry width="50" height="50" relative="1" as="geometry">
            <mxPoint x="700" y="380" as="sourcePoint" />
            <mxPoint x="710" y="380" as="targetPoint" />
          </mxGeometry>
        </mxCell>
        <mxCell id="AMzglcMHUrroP556hHJn-30" value="" style="shape=waypoint;sketch=0;fillStyle=solid;size=6;pointerEvents=1;points=[];fillColor=none;resizable=0;rotatable=0;perimeter=centerPerimeter;snapToPoint=1;strokeWidth=2;" parent="1" vertex="1">
          <mxGeometry x="230" y="260" width="20" height="20" as="geometry" />
        </mxCell>
        <mxCell id="AMzglcMHUrroP556hHJn-31" value="" style="shape=waypoint;sketch=0;fillStyle=solid;size=6;pointerEvents=1;points=[];fillColor=none;resizable=0;rotatable=0;perimeter=centerPerimeter;snapToPoint=1;strokeWidth=2;" parent="1" vertex="1">
          <mxGeometry x="370" y="230" width="20" height="20" as="geometry" />
        </mxCell>
        <mxCell id="AMzglcMHUrroP556hHJn-32" value="" style="shape=waypoint;sketch=0;fillStyle=solid;size=6;pointerEvents=1;points=[];fillColor=none;resizable=0;rotatable=0;perimeter=centerPerimeter;snapToPoint=1;strokeWidth=2;" parent="1" vertex="1">
          <mxGeometry x="610" y="310" width="20" height="20" as="geometry" />
        </mxCell>
        <mxCell id="AMzglcMHUrroP556hHJn-33" value="&lt;font style=&quot;font-size: 16px;&quot;&gt;$$V_{os}[n-1]$$&lt;/font&gt;" style="text;html=1;align=center;verticalAlign=middle;whiteSpace=wrap;rounded=0;strokeWidth=2;" parent="1" vertex="1">
          <mxGeometry x="360" y="381" width="60" height="30" as="geometry" />
        </mxCell>
        <mxCell id="AMzglcMHUrroP556hHJn-34" value="&lt;font style=&quot;font-size: 16px;&quot;&gt;$$V_{ip}$$&lt;/font&gt;" style="text;html=1;align=center;verticalAlign=middle;whiteSpace=wrap;rounded=0;strokeWidth=2;" parent="1" vertex="1">
          <mxGeometry x="150" y="440" width="60" height="30" as="geometry" />
        </mxCell>
        <mxCell id="AMzglcMHUrroP556hHJn-35" value="&lt;font style=&quot;font-size: 16px;&quot;&gt;$$V_{im}$$&lt;/font&gt;" style="text;html=1;align=center;verticalAlign=middle;whiteSpace=wrap;rounded=0;strokeWidth=2;" parent="1" vertex="1">
          <mxGeometry x="410" y="440" width="60" height="30" as="geometry" />
        </mxCell>
        <mxCell id="AMzglcMHUrroP556hHJn-36" value="&lt;font style=&quot;font-size: 16px;&quot;&gt;$$I_{1}[n]=I_{1}[n-1]+\Delta I_1$$&lt;/font&gt;" style="text;html=1;align=center;verticalAlign=middle;whiteSpace=wrap;rounded=0;strokeWidth=2;" parent="1" vertex="1">
          <mxGeometry x="530" y="420" width="60" height="30" as="geometry" />
        </mxCell>
        <mxCell id="AMzglcMHUrroP556hHJn-37" value="&lt;font style=&quot;font-size: 16px;&quot;&gt;$$I_{2}[n-1]$$&lt;/font&gt;" style="text;html=1;align=center;verticalAlign=middle;whiteSpace=wrap;rounded=0;strokeWidth=2;" parent="1" vertex="1">
          <mxGeometry x="650" y="400" width="60" height="30" as="geometry" />
        </mxCell>
        <mxCell id="AMzglcMHUrroP556hHJn-38" value="&lt;font style=&quot;font-size: 16px;&quot;&gt;$$\beta I_{\Delta}$$&lt;/font&gt;" style="text;html=1;align=center;verticalAlign=middle;whiteSpace=wrap;rounded=0;strokeWidth=2;" parent="1" vertex="1">
          <mxGeometry x="610" y="260" width="60" height="30" as="geometry" />
        </mxCell>
        <mxCell id="AMzglcMHUrroP556hHJn-39" value="" style="pointerEvents=1;verticalLabelPosition=bottom;shadow=0;dashed=0;align=center;html=1;verticalAlign=top;shape=mxgraph.electrical.signal_sources.current_source;direction=south;strokeWidth=2;" parent="1" vertex="1">
          <mxGeometry x="910" y="121" width="60" height="40" as="geometry" />
        </mxCell>
        <mxCell id="AMzglcMHUrroP556hHJn-40" value="" style="endArrow=none;html=1;rounded=0;strokeWidth=2;" parent="1" edge="1">
          <mxGeometry width="50" height="50" relative="1" as="geometry">
            <mxPoint x="970" y="141" as="sourcePoint" />
            <mxPoint x="1010" y="141" as="targetPoint" />
          </mxGeometry>
        </mxCell>
        <mxCell id="AMzglcMHUrroP556hHJn-41" value="" style="endArrow=none;html=1;rounded=0;strokeWidth=2;" parent="1" edge="1">
          <mxGeometry width="50" height="50" relative="1" as="geometry">
            <mxPoint x="870" y="141" as="sourcePoint" />
            <mxPoint x="910" y="140.71" as="targetPoint" />
          </mxGeometry>
        </mxCell>
        <mxCell id="AMzglcMHUrroP556hHJn-42" value="" style="endArrow=none;html=1;rounded=0;exitDx=0;exitDy=0;exitPerimeter=0;strokeWidth=2;" parent="1" edge="1">
          <mxGeometry width="50" height="50" relative="1" as="geometry">
            <mxPoint x="870" y="200" as="sourcePoint" />
            <mxPoint x="870" y="141" as="targetPoint" />
          </mxGeometry>
        </mxCell>
        <mxCell id="AMzglcMHUrroP556hHJn-43" value="" style="endArrow=none;html=1;rounded=0;exitX=1;exitY=0;exitDx=0;exitDy=0;exitPerimeter=0;strokeWidth=2;" parent="1" source="AMzglcMHUrroP556hHJn-45" edge="1">
          <mxGeometry width="50" height="50" relative="1" as="geometry">
            <mxPoint x="1010" y="241" as="sourcePoint" />
            <mxPoint x="1010" y="141" as="targetPoint" />
          </mxGeometry>
        </mxCell>
        <mxCell id="AMzglcMHUrroP556hHJn-44" value="" style="verticalLabelPosition=bottom;shadow=0;dashed=0;align=center;html=1;verticalAlign=top;shape=mxgraph.electrical.transistors.nmos;pointerEvents=1;strokeWidth=2;" parent="1" vertex="1">
          <mxGeometry x="810" y="281" width="60" height="100" as="geometry" />
        </mxCell>
        <mxCell id="AMzglcMHUrroP556hHJn-45" value="" style="verticalLabelPosition=bottom;shadow=0;dashed=0;align=center;html=1;verticalAlign=top;shape=mxgraph.electrical.transistors.nmos;pointerEvents=1;direction=east;flipH=1;strokeWidth=2;" parent="1" vertex="1">
          <mxGeometry x="1010" y="281" width="60" height="100" as="geometry" />
        </mxCell>
        <mxCell id="AMzglcMHUrroP556hHJn-46" value="" style="endArrow=none;html=1;rounded=0;strokeWidth=2;" parent="1" edge="1">
          <mxGeometry width="50" height="50" relative="1" as="geometry">
            <mxPoint x="1070" y="361" as="sourcePoint" />
            <mxPoint x="1070" y="331" as="targetPoint" />
          </mxGeometry>
        </mxCell>
        <mxCell id="AMzglcMHUrroP556hHJn-47" value="" style="pointerEvents=1;verticalLabelPosition=bottom;shadow=0;dashed=0;align=center;html=1;verticalAlign=top;shape=mxgraph.electrical.signal_sources.source;aspect=fixed;points=[[0.5,0,0],[1,0.5,0],[0.5,1,0],[0,0.5,0]];elSignalType=dc3;strokeWidth=2;" parent="1" vertex="1">
          <mxGeometry x="1055" y="361" width="30" height="30" as="geometry" />
        </mxCell>
        <mxCell id="AMzglcMHUrroP556hHJn-48" value="" style="endArrow=none;html=1;rounded=0;strokeWidth=2;" parent="1" edge="1">
          <mxGeometry width="50" height="50" relative="1" as="geometry">
            <mxPoint x="810" y="441" as="sourcePoint" />
            <mxPoint x="810" y="331" as="targetPoint" />
          </mxGeometry>
        </mxCell>
        <mxCell id="AMzglcMHUrroP556hHJn-49" value="" style="endArrow=none;html=1;rounded=0;strokeWidth=2;" parent="1" edge="1">
          <mxGeometry width="50" height="50" relative="1" as="geometry">
            <mxPoint x="1070" y="441" as="sourcePoint" />
            <mxPoint x="1070" y="391" as="targetPoint" />
          </mxGeometry>
        </mxCell>
        <mxCell id="AMzglcMHUrroP556hHJn-50" value="" style="pointerEvents=1;verticalLabelPosition=bottom;shadow=0;dashed=0;align=center;html=1;verticalAlign=top;shape=mxgraph.electrical.signal_sources.current_source;direction=south;strokeWidth=2;" parent="1" vertex="1">
          <mxGeometry x="1160" y="361" width="60" height="40" as="geometry" />
        </mxCell>
        <mxCell id="AMzglcMHUrroP556hHJn-51" value="" style="pointerEvents=1;verticalLabelPosition=bottom;shadow=0;dashed=0;align=center;html=1;verticalAlign=top;shape=mxgraph.electrical.signal_sources.current_source;direction=south;strokeWidth=2;" parent="1" vertex="1">
          <mxGeometry x="1270" y="361" width="60" height="40" as="geometry" />
        </mxCell>
        <mxCell id="AMzglcMHUrroP556hHJn-52" value="" style="endArrow=none;html=1;rounded=0;strokeWidth=2;" parent="1" source="AMzglcMHUrroP556hHJn-66" edge="1">
          <mxGeometry width="50" height="50" relative="1" as="geometry">
            <mxPoint x="870" y="271" as="sourcePoint" />
            <mxPoint x="1150" y="271" as="targetPoint" />
          </mxGeometry>
        </mxCell>
        <mxCell id="AMzglcMHUrroP556hHJn-53" value="" style="endArrow=none;html=1;rounded=0;strokeWidth=2;" parent="1" edge="1">
          <mxGeometry width="50" height="50" relative="1" as="geometry">
            <mxPoint x="1150" y="381" as="sourcePoint" />
            <mxPoint x="1150" y="271" as="targetPoint" />
          </mxGeometry>
        </mxCell>
        <mxCell id="AMzglcMHUrroP556hHJn-54" value="" style="endArrow=none;html=1;rounded=0;strokeWidth=2;" parent="1" edge="1">
          <mxGeometry width="50" height="50" relative="1" as="geometry">
            <mxPoint x="1340" y="381" as="sourcePoint" />
            <mxPoint x="1340" y="241" as="targetPoint" />
          </mxGeometry>
        </mxCell>
        <mxCell id="AMzglcMHUrroP556hHJn-55" value="" style="endArrow=none;html=1;rounded=0;strokeWidth=2;" parent="1" edge="1">
          <mxGeometry width="50" height="50" relative="1" as="geometry">
            <mxPoint x="1010" y="241" as="sourcePoint" />
            <mxPoint x="1340" y="241" as="targetPoint" />
          </mxGeometry>
        </mxCell>
        <mxCell id="AMzglcMHUrroP556hHJn-56" value="" style="endArrow=none;html=1;rounded=0;strokeWidth=2;" parent="1" edge="1">
          <mxGeometry width="50" height="50" relative="1" as="geometry">
            <mxPoint x="1220" y="381" as="sourcePoint" />
            <mxPoint x="1230" y="381" as="targetPoint" />
          </mxGeometry>
        </mxCell>
        <mxCell id="AMzglcMHUrroP556hHJn-57" value="" style="endArrow=none;html=1;rounded=0;strokeWidth=2;" parent="1" edge="1">
          <mxGeometry width="50" height="50" relative="1" as="geometry">
            <mxPoint x="1260" y="381" as="sourcePoint" />
            <mxPoint x="1270" y="381" as="targetPoint" />
          </mxGeometry>
        </mxCell>
        <mxCell id="AMzglcMHUrroP556hHJn-58" value="" style="endArrow=none;html=1;rounded=0;strokeWidth=2;" parent="1" edge="1">
          <mxGeometry width="50" height="50" relative="1" as="geometry">
            <mxPoint x="1150" y="380.87" as="sourcePoint" />
            <mxPoint x="1160" y="380.87" as="targetPoint" />
          </mxGeometry>
        </mxCell>
        <mxCell id="AMzglcMHUrroP556hHJn-59" value="" style="endArrow=none;html=1;rounded=0;strokeWidth=2;" parent="1" edge="1">
          <mxGeometry width="50" height="50" relative="1" as="geometry">
            <mxPoint x="1230" y="381" as="sourcePoint" />
            <mxPoint x="1230" y="321" as="targetPoint" />
          </mxGeometry>
        </mxCell>
        <mxCell id="AMzglcMHUrroP556hHJn-60" value="" style="endArrow=none;html=1;rounded=0;strokeWidth=2;" parent="1" edge="1">
          <mxGeometry width="50" height="50" relative="1" as="geometry">
            <mxPoint x="1260" y="381" as="sourcePoint" />
            <mxPoint x="1260" y="321" as="targetPoint" />
          </mxGeometry>
        </mxCell>
        <mxCell id="AMzglcMHUrroP556hHJn-61" value="" style="pointerEvents=1;verticalLabelPosition=bottom;shadow=0;dashed=0;align=center;html=1;verticalAlign=top;shape=mxgraph.electrical.signal_sources.current_source;direction=south;strokeWidth=2;" parent="1" vertex="1">
          <mxGeometry x="1170" y="251" width="60" height="40" as="geometry" />
        </mxCell>
        <mxCell id="AMzglcMHUrroP556hHJn-62" value="" style="endArrow=none;html=1;rounded=0;strokeWidth=2;" parent="1" edge="1">
          <mxGeometry width="50" height="50" relative="1" as="geometry">
            <mxPoint x="1230" y="321" as="sourcePoint" />
            <mxPoint x="1260" y="321" as="targetPoint" />
          </mxGeometry>
        </mxCell>
        <mxCell id="AMzglcMHUrroP556hHJn-63" value="" style="endArrow=none;html=1;rounded=0;strokeWidth=2;" parent="1" edge="1">
          <mxGeometry width="50" height="50" relative="1" as="geometry">
            <mxPoint x="1250" y="321" as="sourcePoint" />
            <mxPoint x="1250" y="271" as="targetPoint" />
          </mxGeometry>
        </mxCell>
        <mxCell id="AMzglcMHUrroP556hHJn-64" value="" style="endArrow=none;html=1;rounded=0;strokeWidth=2;" parent="1" edge="1">
          <mxGeometry width="50" height="50" relative="1" as="geometry">
            <mxPoint x="1230" y="270.92" as="sourcePoint" />
            <mxPoint x="1250" y="271" as="targetPoint" />
          </mxGeometry>
        </mxCell>
        <mxCell id="AMzglcMHUrroP556hHJn-65" value="" style="endArrow=none;html=1;rounded=0;strokeWidth=2;" parent="1" edge="1">
          <mxGeometry width="50" height="50" relative="1" as="geometry">
            <mxPoint x="1330" y="381" as="sourcePoint" />
            <mxPoint x="1340" y="381" as="targetPoint" />
          </mxGeometry>
        </mxCell>
        <mxCell id="AMzglcMHUrroP556hHJn-66" value="" style="shape=waypoint;sketch=0;fillStyle=solid;size=6;pointerEvents=1;points=[];fillColor=none;resizable=0;rotatable=0;perimeter=centerPerimeter;snapToPoint=1;strokeWidth=2;" parent="1" vertex="1">
          <mxGeometry x="860" y="261" width="20" height="20" as="geometry" />
        </mxCell>
        <mxCell id="AMzglcMHUrroP556hHJn-67" value="" style="shape=waypoint;sketch=0;fillStyle=solid;size=6;pointerEvents=1;points=[];fillColor=none;resizable=0;rotatable=0;perimeter=centerPerimeter;snapToPoint=1;strokeWidth=2;" parent="1" vertex="1">
          <mxGeometry x="1000" y="231" width="20" height="20" as="geometry" />
        </mxCell>
        <mxCell id="AMzglcMHUrroP556hHJn-68" value="" style="shape=waypoint;sketch=0;fillStyle=solid;size=6;pointerEvents=1;points=[];fillColor=none;resizable=0;rotatable=0;perimeter=centerPerimeter;snapToPoint=1;strokeWidth=2;" parent="1" vertex="1">
          <mxGeometry x="1240" y="311" width="20" height="20" as="geometry" />
        </mxCell>
        <mxCell id="AMzglcMHUrroP556hHJn-69" value="&lt;font style=&quot;font-size: 16px;&quot;&gt;$$V_{os}[n-1]$$&lt;/font&gt;" style="text;html=1;align=center;verticalAlign=middle;whiteSpace=wrap;rounded=0;strokeWidth=2;" parent="1" vertex="1">
          <mxGeometry x="980" y="381" width="60" height="30" as="geometry" />
        </mxCell>
        <mxCell id="AMzglcMHUrroP556hHJn-70" value="&lt;font style=&quot;font-size: 16px;&quot;&gt;$$V_{ip}$$&lt;/font&gt;" style="text;html=1;align=center;verticalAlign=middle;whiteSpace=wrap;rounded=0;strokeWidth=2;" parent="1" vertex="1">
          <mxGeometry x="1040" y="440" width="60" height="30" as="geometry" />
        </mxCell>
        <mxCell id="AMzglcMHUrroP556hHJn-71" value="&lt;font style=&quot;font-size: 16px;&quot;&gt;$$V_{im}$$&lt;/font&gt;" style="text;html=1;align=center;verticalAlign=middle;whiteSpace=wrap;rounded=0;strokeWidth=2;" parent="1" vertex="1">
          <mxGeometry x="780" y="440" width="60" height="30" as="geometry" />
        </mxCell>
        <mxCell id="AMzglcMHUrroP556hHJn-72" value="&lt;font style=&quot;font-size: 16px;&quot;&gt;$$I_{1}[n-1]$$&lt;/font&gt;" style="text;html=1;align=center;verticalAlign=middle;whiteSpace=wrap;rounded=0;strokeWidth=2;" parent="1" vertex="1">
          <mxGeometry x="1160" y="401" width="60" height="30" as="geometry" />
        </mxCell>
        <mxCell id="AMzglcMHUrroP556hHJn-74" value="&lt;font style=&quot;font-size: 16px;&quot;&gt;$$\beta I_{\Delta}$$&lt;/font&gt;" style="text;html=1;align=center;verticalAlign=middle;whiteSpace=wrap;rounded=0;strokeWidth=2;" parent="1" vertex="1">
          <mxGeometry x="1240" y="261" width="60" height="30" as="geometry" />
        </mxCell>
        <mxCell id="AMzglcMHUrroP556hHJn-75" value="&lt;font style=&quot;font-size: 16px;&quot;&gt;$$1:1$$&lt;/font&gt;" style="text;html=1;align=center;verticalAlign=middle;whiteSpace=wrap;rounded=0;strokeWidth=2;" parent="1" vertex="1">
          <mxGeometry x="280" y="161" width="60" height="30" as="geometry" />
        </mxCell>
        <mxCell id="AMzglcMHUrroP556hHJn-76" value="&lt;font style=&quot;font-size: 16px;&quot;&gt;$$1:1$$&lt;/font&gt;" style="text;html=1;align=center;verticalAlign=middle;whiteSpace=wrap;rounded=0;strokeWidth=2;" parent="1" vertex="1">
          <mxGeometry x="910" y="161" width="60" height="30" as="geometry" />
        </mxCell>
        <mxCell id="AMzglcMHUrroP556hHJn-77" value="&lt;font style=&quot;font-size: 16px;&quot;&gt;$$1:1$$&lt;/font&gt;" style="text;html=1;align=center;verticalAlign=middle;whiteSpace=wrap;rounded=0;strokeWidth=2;" parent="1" vertex="1">
          <mxGeometry x="530" y="330" width="60" height="30" as="geometry" />
        </mxCell>
        <mxCell id="AMzglcMHUrroP556hHJn-78" value="&lt;font style=&quot;font-size: 16px;&quot;&gt;$$1:1$$&lt;/font&gt;" style="text;html=1;align=center;verticalAlign=middle;whiteSpace=wrap;rounded=0;strokeWidth=2;" parent="1" vertex="1">
          <mxGeometry x="640" y="330" width="60" height="30" as="geometry" />
        </mxCell>
        <mxCell id="AMzglcMHUrroP556hHJn-79" value="&lt;font style=&quot;font-size: 16px;&quot;&gt;$$1:1$$&lt;/font&gt;" style="text;html=1;align=center;verticalAlign=middle;whiteSpace=wrap;rounded=0;strokeWidth=2;" parent="1" vertex="1">
          <mxGeometry x="1160" y="330" width="60" height="30" as="geometry" />
        </mxCell>
        <mxCell id="AMzglcMHUrroP556hHJn-80" value="&lt;font style=&quot;font-size: 16px;&quot;&gt;$$1:1$$&lt;/font&gt;" style="text;html=1;align=center;verticalAlign=middle;whiteSpace=wrap;rounded=0;strokeWidth=2;" parent="1" vertex="1">
          <mxGeometry x="1270" y="331" width="60" height="30" as="geometry" />
        </mxCell>
        <mxCell id="AMzglcMHUrroP556hHJn-81" value="&lt;font style=&quot;font-size: 16px;&quot;&gt;$$1:\beta$$&lt;/font&gt;" style="text;html=1;align=center;verticalAlign=middle;whiteSpace=wrap;rounded=0;strokeWidth=2;" parent="1" vertex="1">
          <mxGeometry x="1170" y="291" width="60" height="30" as="geometry" />
        </mxCell>
        <mxCell id="AMzglcMHUrroP556hHJn-82" value="&lt;font style=&quot;font-size: 16px;&quot;&gt;$$1:\beta$$&lt;/font&gt;" style="text;html=1;align=center;verticalAlign=middle;whiteSpace=wrap;rounded=0;strokeWidth=2;" parent="1" vertex="1">
          <mxGeometry x="540" y="290" width="60" height="30" as="geometry" />
        </mxCell>
        <mxCell id="AMzglcMHUrroP556hHJn-83" value="&lt;font size=&quot;1&quot; style=&quot;&quot;&gt;&lt;b style=&quot;font-size: 20px;&quot;&gt;(phase 0)&lt;/b&gt;&lt;/font&gt;" style="text;html=1;align=center;verticalAlign=middle;whiteSpace=wrap;rounded=0;strokeWidth=2;" parent="1" vertex="1">
          <mxGeometry x="365" y="500" width="90" height="30" as="geometry" />
        </mxCell>
        <mxCell id="AMzglcMHUrroP556hHJn-84" value="&lt;font size=&quot;1&quot; style=&quot;&quot;&gt;&lt;b style=&quot;font-size: 20px;&quot;&gt;(phase 1)&lt;/b&gt;&lt;/font&gt;" style="text;html=1;align=center;verticalAlign=middle;whiteSpace=wrap;rounded=0;strokeWidth=2;" parent="1" vertex="1">
          <mxGeometry x="1020" y="500" width="90" height="30" as="geometry" />
        </mxCell>
        <mxCell id="m31NP56nFRz9vNVK3klE-1" value="" style="endArrow=none;html=1;rounded=0;strokeWidth=2;entryX=0.5;entryY=1;entryDx=0;entryDy=0;" parent="1" source="m31NP56nFRz9vNVK3klE-5" target="m31NP56nFRz9vNVK3klE-4" edge="1">
          <mxGeometry width="50" height="50" relative="1" as="geometry">
            <mxPoint x="380" y="209.83" as="sourcePoint" />
            <mxPoint x="580" y="209.83" as="targetPoint" />
            <Array as="points">
              <mxPoint x="400" y="209" />
            </Array>
          </mxGeometry>
        </mxCell>
        <mxCell id="m31NP56nFRz9vNVK3klE-3" value="" style="endArrow=none;html=1;rounded=0;exitX=1;exitY=0.01;exitDx=0;exitDy=0;exitPerimeter=0;strokeWidth=2;" parent="1" source="AMzglcMHUrroP556hHJn-8" edge="1">
          <mxGeometry width="50" height="50" relative="1" as="geometry">
            <mxPoint x="240" y="284" as="sourcePoint" />
            <mxPoint x="240" y="201" as="targetPoint" />
          </mxGeometry>
        </mxCell>
        <mxCell id="m31NP56nFRz9vNVK3klE-4" value="&lt;span style=&quot;font-size: 16px;&quot;&gt;ota_out&lt;/span&gt;" style="text;html=1;align=center;verticalAlign=middle;whiteSpace=wrap;rounded=0;strokeWidth=2;" parent="1" vertex="1">
          <mxGeometry x="395" y="179" width="60" height="30" as="geometry" />
        </mxCell>
        <mxCell id="m31NP56nFRz9vNVK3klE-6" value="" style="endArrow=none;html=1;rounded=0;exitX=1;exitY=0;exitDx=0;exitDy=0;exitPerimeter=0;strokeWidth=2;" parent="1" source="AMzglcMHUrroP556hHJn-9" target="m31NP56nFRz9vNVK3klE-5" edge="1">
          <mxGeometry width="50" height="50" relative="1" as="geometry">
            <mxPoint x="380" y="283" as="sourcePoint" />
            <mxPoint x="380" y="140" as="targetPoint" />
          </mxGeometry>
        </mxCell>
        <mxCell id="m31NP56nFRz9vNVK3klE-5" value="" style="shape=waypoint;sketch=0;fillStyle=solid;size=6;pointerEvents=1;points=[];fillColor=none;resizable=0;rotatable=0;perimeter=centerPerimeter;snapToPoint=1;strokeWidth=2;" parent="1" vertex="1">
          <mxGeometry x="370" y="199" width="20" height="20" as="geometry" />
        </mxCell>
        <mxCell id="m31NP56nFRz9vNVK3klE-11" value="" style="endArrow=none;html=1;rounded=0;exitX=1;exitY=0.01;exitDx=0;exitDy=0;exitPerimeter=0;strokeWidth=2;" parent="1" source="AMzglcMHUrroP556hHJn-44" edge="1">
          <mxGeometry width="50" height="50" relative="1" as="geometry">
            <mxPoint x="870" y="285" as="sourcePoint" />
            <mxPoint x="870" y="200" as="targetPoint" />
          </mxGeometry>
        </mxCell>
        <mxCell id="m31NP56nFRz9vNVK3klE-13" value="" style="endArrow=none;html=1;rounded=0;strokeWidth=2;entryX=0.5;entryY=1;entryDx=0;entryDy=0;" parent="1" source="m31NP56nFRz9vNVK3klE-15" target="m31NP56nFRz9vNVK3klE-14" edge="1">
          <mxGeometry width="50" height="50" relative="1" as="geometry">
            <mxPoint x="870" y="209.83" as="sourcePoint" />
            <mxPoint x="1070" y="209.83" as="targetPoint" />
            <Array as="points">
              <mxPoint x="890" y="209" />
            </Array>
          </mxGeometry>
        </mxCell>
        <mxCell id="m31NP56nFRz9vNVK3klE-14" value="&lt;span style=&quot;font-size: 16px;&quot;&gt;ota_out&lt;/span&gt;" style="text;html=1;align=center;verticalAlign=middle;whiteSpace=wrap;rounded=0;strokeWidth=2;" parent="1" vertex="1">
          <mxGeometry x="1035" y="179" width="60" height="30" as="geometry" />
        </mxCell>
        <mxCell id="m31NP56nFRz9vNVK3klE-15" value="" style="shape=waypoint;sketch=0;fillStyle=solid;size=6;pointerEvents=1;points=[];fillColor=none;resizable=0;rotatable=0;perimeter=centerPerimeter;snapToPoint=1;strokeWidth=2;" parent="1" vertex="1">
          <mxGeometry x="860" y="199" width="20" height="20" as="geometry" />
        </mxCell>
        <mxCell id="QOUg6WwI-Nw2HB1CUy9--1" value="&lt;font style=&quot;font-size: 16px;&quot;&gt;$$I_{2}[n]=I_{2}[n-1]+\Delta I_2$$&lt;/font&gt;" style="text;html=1;align=center;verticalAlign=middle;whiteSpace=wrap;rounded=0;strokeWidth=2;" parent="1" vertex="1">
          <mxGeometry x="1290" y="420" width="60" height="30" as="geometry" />
        </mxCell>
      </root>
    </mxGraphModel>
  </diagram>
</mxfile>
